<?xml version="1.0" standalone="no"?>
<!DOCTYPE svg PUBLIC "-//W3C//DTD SVG 20010904//EN"
 "http://www.w3.org/TR/2001/REC-SVG-20010904/DTD/svg10.dtd">
<svg version="1.0" xmlns="http://www.w3.org/2000/svg"
 width="310.000000pt" height="310.000000pt" viewBox="0 0 310.000000 310.000000"
 preserveAspectRatio="xMidYMid meet">

<g transform="translate(0.000000,310.000000) scale(0.100000,-0.100000)"
fill="#000000" stroke="none">
<path d="M995 2869 c-473 -63 -861 -432 -950 -902 -8 -45 -15 -135 -15 -207 0
-300 99 -552 300 -764 232 -245 543 -371 869 -352 166 9 157 4 153 85 -4 63
-1 76 36 158 68 152 68 192 -3 246 -25 19 -70 69 -100 111 -68 95 -73 138 -25
223 17 29 30 64 30 77 0 35 -36 58 -77 50 -39 -7 -73 11 -119 63 -25 29 -56
44 -165 84 -74 27 -145 57 -159 67 -14 11 -32 39 -40 64 -8 26 -31 70 -51 100
-20 29 -39 60 -43 68 -7 16 -1 -28 10 -70 l6 -25 -21 25 c-11 14 -23 41 -27
60 -3 19 -19 67 -35 107 -16 39 -29 87 -29 105 0 36 54 201 67 205 8 3 6 120
-2 161 -7 28 -35 29 -94 2 -24 -11 -46 -18 -48 -16 -6 5 84 71 162 119 69 43
90 45 170 17 32 -11 64 -20 71 -20 7 0 10 8 7 20 -8 31 45 26 98 -10 30 -20
57 -30 82 -30 35 0 38 -2 32 -22 -4 -13 -14 -27 -22 -33 -76 -50 -75 -52 18
-110 80 -49 93 -43 84 35 -6 54 -5 60 12 60 10 -1 29 -7 43 -15 14 -8 40 -14
58 -15 30 0 68 -21 137 -75 20 -16 19 -17 -13 -43 -39 -33 -40 -44 -5 -67 25
-17 26 -18 8 -31 -10 -8 -29 -14 -40 -14 -23 0 -59 -32 -49 -43 4 -3 -5 -11
-19 -18 -30 -14 -47 -48 -47 -96 0 -27 -9 -45 -36 -75 -35 -39 -36 -42 -29
-94 7 -58 -1 -67 -31 -33 -59 66 -182 63 -252 -7 -32 -32 -34 -38 -29 -81 4
-35 12 -53 32 -71 31 -26 50 -23 106 14 52 35 63 32 56 -17 -4 -32 -2 -42 11
-46 33 -12 62 -47 68 -82 9 -53 29 -79 71 -90 62 -18 84 -13 163 34 41 25 85
45 98 45 14 0 66 -17 116 -39 50 -21 109 -44 131 -51 50 -16 75 -37 75 -64 0
-39 15 -48 101 -57 133 -15 148 -35 106 -140 -41 -98 -96 -176 -214 -304 -83
-89 -141 -142 -207 -186 -50 -34 -102 -72 -115 -83 -28 -25 -75 -96 -67 -103
2 -3 42 7 88 22 363 120 637 410 739 782 30 112 38 376 14 494 -49 243 -155
433 -339 606 -198 188 -444 290 -716 298 -69 2 -156 0 -195 -6z m314 -45 c78
-18 131 -52 131 -85 0 -11 9 -37 20 -58 10 -21 17 -41 14 -44 -11 -10 -58 14
-129 66 -71 52 -122 76 -162 77 -25 0 -31 28 -11 48 16 16 52 15 137 -4z
m-169 -8 c0 -19 -39 -46 -66 -46 -17 0 -21 4 -17 21 9 32 83 55 83 25z m65
-114 c34 -18 51 -34 53 -49 3 -20 -1 -23 -31 -23 -53 0 -70 9 -55 27 10 13 8
19 -11 34 -13 11 -35 19 -50 19 -14 0 -33 5 -41 10 -11 7 -1 10 35 10 35 0 65
-8 100 -28z m80 -832 c46 -24 64 -29 96 -24 42 7 56 -9 17 -20 -40 -10 -62 -6
-123 24 -33 17 -69 30 -80 30 -11 0 -27 5 -35 10 -11 7 -4 10 26 10 27 0 62
-10 99 -30z"/>
<path d="M2255 2400 c-17 -5 -44 -23 -60 -40 -28 -29 -28 -32 -16 -63 92 -223
120 -335 125 -509 4 -115 5 -118 36 -155 80 -97 120 -243 100 -366 -39 -227
-227 -386 -459 -387 -76 -1 -76 -1 -141 -50 -81 -63 -229 -139 -338 -175 -80
-26 -83 -28 -107 -76 -31 -61 -33 -129 -5 -175 20 -32 37 -42 174 -103 132
-59 196 -37 259 92 46 96 79 120 150 114 62 -5 89 -31 130 -128 57 -132 114
-147 293 -78 117 45 147 70 166 132 11 36 9 48 -15 116 -15 42 -27 90 -27 106
0 48 33 91 85 111 l47 17 77 -31 c85 -35 128 -39 171 -17 38 20 58 51 109 169
68 156 53 206 -83 272 -76 37 -91 52 -106 106 -8 29 -7 45 6 77 18 45 36 59
109 86 94 35 135 81 135 153 0 30 -69 216 -95 256 -37 55 -128 71 -210 36
-151 -65 -259 38 -194 187 45 101 42 158 -9 213 -28 29 -194 106 -247 114 -16
3 -44 1 -60 -4z"/>
</g>
</svg>
