<?xml version="1.0" standalone="no"?>
<!DOCTYPE svg PUBLIC "-//W3C//DTD SVG 20010904//EN"
 "http://www.w3.org/TR/2001/REC-SVG-20010904/DTD/svg10.dtd">
<svg version="1.0" xmlns="http://www.w3.org/2000/svg"
 width="700.000000pt" height="700.000000pt" viewBox="0 0 700.000000 700.000000"
 preserveAspectRatio="xMidYMid meet">
<metadata>
Created by potrace 1.11, written by Peter Selinger 2001-2013
</metadata>
<g transform="translate(0.000000,700.000000) scale(0.100000,-0.100000)"
fill="#000000" stroke="none">
<path d="M3278 6996 c-1 -2 -39 -6 -83 -10 -89 -7 -144 -13 -225 -26 -30 -5
-75 -12 -100 -15 -24 -4 -47 -8 -51 -10 -3 -2 -21 -7 -40 -10 -384 -68 -892
-285 -1263 -540 -627 -432 -1108 -1077 -1346 -1805 -28 -87 -75 -256 -85 -311
-3 -13 -12 -58 -20 -99 -8 -41 -17 -89 -19 -105 -3 -17 -7 -46 -11 -66 -35
-211 -41 -720 -10 -910 2 -13 6 -46 10 -74 11 -92 16 -119 47 -260 165 -764
585 -1452 1193 -1955 50 -41 115 -93 145 -115 30 -22 57 -43 58 -47 2 -5 8 -8
13 -8 6 0 38 -19 72 -43 160 -111 405 -241 622 -331 214 -88 535 -177 759
-211 21 -3 48 -7 60 -10 122 -27 596 -40 801 -22 431 39 840 154 1250 353 61
29 140 71 177 94 37 22 70 40 73 40 3 0 11 5 18 10 7 6 62 43 122 83 248 164
475 361 664 576 31 35 63 71 71 80 13 14 67 82 92 116 4 6 18 24 31 40 97 125
232 343 323 525 152 303 259 623 318 950 14 81 17 101 32 215 3 27 8 61 11 75
8 48 10 525 3 605 -12 128 -21 202 -25 227 -3 13 -8 43 -11 68 -3 25 -9 61
-14 80 -5 19 -12 51 -15 70 -12 72 -65 269 -100 375 -208 625 -582 1172 -1095
1603 -67 56 -305 231 -351 257 -10 5 -66 39 -126 73 -106 63 -383 202 -400
202 -5 0 -27 8 -49 19 -102 48 -459 154 -629 187 -22 4 -47 9 -55 10 -8 2 -33
6 -55 9 -22 2 -51 7 -65 10 -13 2 -52 7 -86 11 -33 3 -74 8 -90 10 -32 5 -540
14 -546 10z m2397 -1902 c97 -40 157 -153 161 -299 2 -108 -20 -179 -79 -249
-74 -89 163 -80 -2252 -81 -1806 0 -2145 2 -2175 14 -53 21 -105 77 -137 145
-25 55 -28 71 -28 166 1 92 4 112 27 162 29 62 84 122 132 143 26 11 388 14
2172 14 1913 1 2146 -1 2179 -15z m1 -1289 c177 -67 220 -393 73 -559 -63 -72
125 -67 -2270 -64 l-2156 3 -46 38 c-31 25 -57 60 -79 104 -28 58 -33 77 -35
158 -3 103 15 169 64 239 36 51 71 76 125 90 32 8 631 11 2162 9 1947 -1 2122
-2 2162 -18z m-1411 -1287 c43 -23 70 -56 100 -119 76 -166 36 -398 -83 -480
l-36 -24 -1445 -3 c-1117 -2 -1455 0 -1484 9 -66 22 -125 106 -147 211 -39
191 39 392 163 417 15 3 675 6 1465 5 1298 0 1440 -2 1467 -16z"/>
</g>
</svg>
