<?xml version="1.0" encoding="UTF-8" standalone="no"?>
<!-- Uploaded to: SVG Repo, www.svgrepo.com, Generator: SVG Repo Mixer Tools -->

<svg
   fill="#000000"
   width="695"
   height="695"
   viewBox="0 0 20.85 20.85"
   id="agenda-pencil"
   data-name="Line Color"
   class="icon line-color"
   version="1.1"
   sodipodi:docname="brand.svg"
   inkscape:version="1.2.2 (b0a8486541, 2022-12-01)"
   xmlns:inkscape="http://www.inkscape.org/namespaces/inkscape"
   xmlns:sodipodi="http://sodipodi.sourceforge.net/DTD/sodipodi-0.dtd"
   xmlns="http://www.w3.org/2000/svg"
   xmlns:svg="http://www.w3.org/2000/svg">
  <defs
     id="defs1499" />
  <sodipodi:namedview
     id="namedview1497"
     pagecolor="#ffffff"
     bordercolor="#666666"
     borderopacity="1.0"
     inkscape:showpageshadow="2"
     inkscape:pageopacity="0.0"
     inkscape:pagecheckerboard="0"
     inkscape:deskcolor="#d1d1d1"
     showgrid="false"
     inkscape:zoom="0.3958404"
     inkscape:cx="437.04483"
     inkscape:cy="915.77312"
     inkscape:window-width="2560"
     inkscape:window-height="1371"
     inkscape:window-x="0"
     inkscape:window-y="32"
     inkscape:window-maximized="1"
     inkscape:current-layer="agenda-pencil" />
  <g
     id="g157"
     transform="translate(0.06082949)">
    <path
       id="secondary"
       d="M 19.08741,5.6462257 17.258775,3.8175911 a 1.3061676,1.3061676 0 0 0 -1.828634,0 L 9.016858,10.230874 v 3.657269 h 3.657269 L 19.08741,7.4748603 a 1.3061676,1.3061676 0 0 0 0,-1.8286346 z"
       style="fill:none;stroke:#f66b0e;stroke-width:2.55;stroke-linecap:round;stroke-linejoin:round;stroke-dasharray:none;stroke-opacity:1" />
    <path
       id="primary"
       d="m 15.566162,16.453545 v 2.009515 a 0.93635558,1.0047573 0 0 1 -0.936355,1.004757 H 3.3935396 A 0.93635558,1.0047573 0 0 1 2.457184,18.46306 V 2.3869423 A 0.93635558,1.0047573 0 0 1 3.3935396,1.382185 h 9.3635554"
       style="fill:none;stroke:#efefef;stroke-width:2.76437;stroke-linecap:round;stroke-linejoin:round;stroke-dasharray:none;stroke-opacity:1" />
    <path
       id="primary-2"
       data-name="primary"
       d="m 1.5,6.425001 h 2 m -2,4 h 2 m -2,4 h 2"
       style="fill:none;stroke:#efefef;stroke-width:3;stroke-linecap:round;stroke-linejoin:round;stroke-dasharray:none;stroke-opacity:1" />
  </g>
</svg>
